<?xml version="1.0" encoding="UTF-8"?>
<svg width="150px" height="150px" viewBox="0 0 150 150" version="1.1" xmlns="http://www.w3.org/2000/svg" xmlns:xlink="http://www.w3.org/1999/xlink">
    <g id="页面-1" stroke="none" stroke-width="1" fill="none" fill-rule="evenodd">
        <rect id="矩形" fill="#8A6BBE" x="0" y="0" width="150" height="150" rx="8"></rect>
        <path id="直线-4" d="M64.1325538,81.6374196 L70.3625804,88.1325538 L67.1150133,91.2475671 L51.512,106.212 L63.334029,118.53715 C64.4067732,119.655543 64.4141576,121.405495 63.382321,122.532343 L63.2479308,122.669863 C62.9204559,122.983972 62.5243456,123.217522 62.0909695,123.352018 L62.0909695,123.352018 L16.0118582,137.652432 C14.4701219,138.130901 12.8324212,137.268954 12.3539513,135.727217 C12.1664998,135.123207 12.1800105,134.474691 12.3924556,133.879012 L12.3924556,133.879012 L28.5995913,88.4354744 C29.1418572,86.9150034 30.8140358,86.1220115 32.3345068,86.6642774 C32.7619053,86.8167062 33.1479448,87.0665512 33.4620533,87.3940261 L33.4620533,87.3940261 L45.282,99.717 L60.8849867,84.7524329 L64.1325538,81.6374196 Z" fill="#F596AA" fill-rule="nonzero"></path>
        <path id="直线" d="M14.2444338,12.3619063 C14.8463984,12.1679848 15.4950217,12.1745365 16.0929462,12.3805781 L16.0929462,12.3805781 L61.7077613,28.0991968 C63.233963,28.6251177 64.0448508,30.2886917 63.51893,31.8148934 C63.3710957,32.2439027 63.1254071,32.6326007 62.8013213,32.9502048 L62.8013213,32.9502048 L50.605,44.902 L67.2139578,61.8503214 L70.3636364,65.0642792 L63.9357208,71.3636364 L60.7860422,68.1496786 L44.177,51.201 L31.9805002,63.1546094 C30.8736816,64.2392917 29.1239089,64.2654517 27.9860549,63.245765 L27.847101,63.1128579 C27.5294968,62.7887721 27.2917101,62.3951905 27.1525719,61.9632825 L27.1525719,61.9632825 L12.3585778,16.0402591 C11.8635935,14.5037453 12.70792,12.8568906 14.2444338,12.3619063 Z" fill="#FFB11B" fill-rule="nonzero"></path>
        <path id="直线-2" d="M133.906597,12.3801299 C135.432798,11.8542091 137.096372,12.6650969 137.622293,14.1912986 C137.828335,14.7892231 137.834886,15.4378464 137.640965,16.039811 L137.640965,16.039811 L122.846971,61.9628343 C122.351986,63.4993482 120.705132,64.3436747 119.168618,63.8486904 C118.73671,63.7095522 118.343128,63.4717654 118.019042,63.1541613 L118.019042,63.1541613 L105.822,51.201 L89.2139578,68.1496786 L86.0642792,71.3636364 L79.6363636,65.0642792 L82.7860422,61.8503214 L99.394,44.902 L87.1982214,32.9497567 C86.0914028,31.8650744 86.0299028,30.1161872 87.0263969,28.9579677 L87.1564699,28.8163574 C87.474074,28.4922716 87.862772,28.246583 88.2917814,28.0987487 L88.2917814,28.0987487 Z" fill="#81C7D4" fill-rule="nonzero"></path>
        <path id="直线-3" d="M85.8674462,81.6374196 L89.1150133,84.7524329 L104.717,99.717 L116.53839,87.393564 C117.611134,86.275171 119.359261,86.19491 120.528106,87.1789196 L120.671103,87.3074658 C120.998578,87.6215744 121.248423,88.0076139 121.400852,88.4350123 L121.400852,88.4350123 L137.607988,133.87855 C138.150254,135.399021 137.357262,137.071199 135.836791,137.613465 C135.241111,137.82591 134.592596,137.839421 133.988585,137.651969 L133.988585,137.651969 L87.9094737,123.351556 C86.3677374,122.873086 85.5057896,121.235385 85.9842595,119.693649 C86.1187555,119.260273 86.3523057,118.864162 86.6664143,118.536687 L86.6664143,118.536687 L98.487,106.212 L82.8849867,91.2475671 L79.6374196,88.1325538 L85.8674462,81.6374196 Z" fill="#86C166" fill-rule="nonzero"></path>
        <circle id="椭圆形" fill="#E03C8A" cx="75" cy="77" r="15"></circle>
    </g>
</svg>